<svg width="129" height="129" viewBox="0 0 129 129" fill="none" xmlns="http://www.w3.org/2000/svg">
<g clip-path="url(#clip0_3_2)">
<path d="M61.3258 21.1272V2.62723C63.7078 0.433129 65.0175 0.482191 67.3258 2.62723V21.1272M93.8258 32.6272L105.326 20.1272C108.848 19.6091 109.35 20.7352 109.326 23.6272L97.3258 36.6272M107.826 61.6272H127.326C129.559 64.5285 129.076 66.0249 127.326 68.6272H107.826M97.3258 94.6272L109.326 106.127C110.709 110.456 109.856 111.549 104.826 110.627L92.8258 98.6272M67.3258 110.127V127.627C64.9826 129.392 63.6689 129.71 61.3258 127.627V110.127M33.8258 99.1272L22.3258 111.627C19.7493 111.838 18.4923 111.364 17.3258 107.127L29.8258 94.6272M18.3258 67.6272H2.32577C-1.11741 65.2843 -0.41318 63.9703 2.32577 61.6272H18.3258M29.8258 35.1272L18.3258 23.6272C18.0408 19.4482 19.1745 18.506 23.3258 19.1272L33.8258 30.6272M61.3258 104.627V89.1272H50.3258C45.1259 86.9889 42.9697 84.8697 40.3258 79.6272V60.6272C40.5248 58.7534 41.2371 58.5475 42.8258 58.6272H45.8258V40.1272C45.8186 39.1917 49.6304 35.8007 52.3258 40.1272V59.6272H76.3258V39.6272C78.8077 36.917 80.1167 37.0139 82.3258 39.6272V59.6272C82.3258 59.6272 84.8258 59.6272 86.8258 59.6272C88.8258 59.6272 88.8258 61.6272 88.8258 61.6272V79.1272C85.8673 84.6754 83.8288 87.2396 78.3258 89.1272H67.3258V104.627M46.3258 63.6272V77.6272C48.1306 81.1359 49.5274 82.1302 52.3258 83.1272H76.3258C80.1345 82.5658 81.3749 81.2828 82.3258 77.6272V63.6272H46.3258Z" stroke="black"/>
<circle cx="63.3258" cy="65.6272" r="44.5" stroke="black"/>
<circle cx="63.3258" cy="65.6272" r="39.5" stroke="black"/>
</g>
<defs>
<clipPath id="clip0_3_2">
<rect width="129" height="129" fill="white"/>
</clipPath>
</defs>
</svg>
